# xmcd
#
# Track frame offsets: 
#        150
#        12651
#        26509
#        45313
#        63870
#        77882
#        94714
#        110854
#        125264
#        143213
#        160203
#        177976
#
# Disc length: 2646 seconds
#
# Revision: 0
# Processed by: cddbd v1.5.2PL0 Copyright (c) Steve Scherf et al.
# Submitted via: ExactAudioCopyFreeDBPlugin 1.0
#
DISCID=9b0a540c
DTITLE=Ingram Hill - Blue Room Afternoon
DYEAR=2011
DGENRE=
TTITLE0=Will I Ever Make It Home (Acoustic)
TTITLE1=Broken Lover (Acoustic)
TTITLE2=Never Be The Same (Acoustic)
TTITLE3=Lady Grey (Acoustic)
TTITLE4=I Won't Be Your Lover (Acoustic)
TTITLE5=Almost Perfect (Acoustic)
TTITLE6=Hey Girl (Acoustic)
TTITLE7=The Day Your Luck Runs Out (Acoustic)
TTITLE8=Miss Kennedy (Acoustic)
TTITLE9=L.A. Crazy (Acoustic)
TTITLE10=On My Way (Acoustic)
TTITLE11=Magnolia Me (Acoustic)
EXTD=
EXTT0=
EXTT1=
EXTT2=
EXTT3=
EXTT4=
EXTT5=
EXTT6=
EXTT7=
EXTT8=
EXTT9=
EXTT10=
EXTT11=
PLAYORDER=
